<?xml version="1.0" encoding="utf-8"?>
<!-- Generator: Adobe Illustrator 22.1.0, SVG Export Plug-In . SVG Version: 6.00 Build 0)  -->
<svg version="1.1" id="Layer_1" xmlns="http://www.w3.org/2000/svg" xmlns:xlink="http://www.w3.org/1999/xlink" x="0px" y="0px"
	 viewBox="0 0 1920 1080" style="enable-background:new 0 0 1920 1080;" xml:space="preserve">
<style type="text/css">
	.st0{fill:#B3B3B3;stroke:#B3B3B3;stroke-width:40;stroke-miterlimit:10;}
	.st1{fill:#B3B3B3;stroke:#B3B3B3;stroke-width:20;stroke-miterlimit:10;}
	.st2{fill:#009245;stroke:#39B54A;stroke-miterlimit:10;}
	.st3{fill:#CC3333;stroke:#000000;stroke-width:0.75;stroke-miterlimit:10;}
	.st4{fill:none;}
	.st5{fill:#DE1417;stroke:#000000;stroke-width:0.75;stroke-miterlimit:10;}
</style>
<circle class="st0" cx="862.5" cy="809.5" r="97.5"/>
<g>
	<path class="st0" d="M1222.8,188c-3.3,0-6.5-1.2-9-3.5c-186.2-174.8-489.1-174.8-675.2,0c-5,4.7-13.1,4.7-18.1,0
		c-5-4.7-5-12.3,0-17c196.1-184.2,515.3-184.2,711.4,0c5,4.7,5,12.3,0,17C1229.3,186.8,1226.1,188,1222.8,188z"/>
</g>
<g>
	<path class="st0" d="M1073.1,360.9c-3.6,0-7.2-1.3-9.9-3.9c-103.1-96.9-271-96.9-374.1,0c-5.5,5.2-14.4,5.2-19.9,0
		c-5.5-5.1-5.5-13.5,0-18.6c114.1-107.2,299.7-107.2,413.8,0c5.5,5.1,5.5,13.5,0,18.6C1080.3,359.6,1076.7,360.9,1073.1,360.9z"/>
</g>
<g>
	<path class="st1" d="M947.4,578.9c-7,0-13.9-2.5-19.2-7.5c-28.7-26.9-75.3-26.9-104,0c-10.6,10-27.8,10-38.5,0
		c-10.6-10-10.6-26.1,0-36.1c49.9-46.8,131-46.8,180.9,0c10.6,10,10.6,26.1,0,36.1C961.3,576.4,954.3,578.9,947.4,578.9z"/>
</g>
<path class="st2" d="M876.1,161.5"/>
<path class="st2" d="M876.1,295.5"/>
<path class="st3" d="M961.5,943.5c158-250.3,316-500.7,474-751c-58,0.2-116.1,0.3-174.1,0.5L862.6,852.7L490.9,199.2
	c-56.5,0.1-112.9,0.2-169.4,0.3c149,248,298,496,447,744C832.8,943.5,897.2,943.5,961.5,943.5z"/>
<line class="st4" x1="1962" y1="534" x2="2228" y2="1221"/>
<line class="st4" x1="2204" y1="1164" x2="2126" y2="1156"/>
<line class="st4" x1="2469" y1="469" x2="2204" y2="1164"/>
<line class="st4" x1="2185" y1="742" x2="1920" y2="1437"/>
<line class="st4" x1="2026" y1="622" x2="2319" y2="862"/>
<rect id="_x3C_Slice_x3E_" x="1864" y="569" class="st4" width="82" height="37"/>
<path class="st5" d="M421.5,274.5"/>
</svg>
